<svg xmlns="http://www.w3.org/2000/svg" width="132.382" height="60" viewBox="0 0 132.382 60"><g transform="translate(-394 -15)"><path d="M350.237,233.483h3.847v-21.4l8.729,15.617h.54l8.729-15.617v21.4h3.847V205.2h-3.847l-9,16.1-9-16.1h-3.847v28.284ZM465.97,205.2a14.142,14.142,0,1,1-14.142,14.141A14.142,14.142,0,0,1,465.97,205.2Zm0,3.847a10.295,10.295,0,1,0,10.3,10.294,10.294,10.294,0,0,0-10.3-10.294ZM449.7,233.483v-3.847H439.553V205.2h-3.847v28.284Zm-23.041,0H430.5V205.2h-3.847v28.284Zm-17.008-12.534h3.428a5.952,5.952,0,1,0,0-11.9h-3.428v11.9Zm3.428-15.75a9.8,9.8,0,0,1,3.778,18.836l5.9,9.447h-3.847l-5.43-8.694c-1.253.049-2.568.008-3.828.008v8.686H405.8V205.2Zm-27.772,0v18.485a5.952,5.952,0,0,0,11.9,0V205.2h3.847v18.485a9.8,9.8,0,0,1-19.6,0V205.2Zm20.5,60h3.847V252.981h9.258V265.2h3.847V236.914h-3.847v12.218h-9.258V236.914H405.8V265.2Zm76.817-12.218v-3.848H472.324v-8.37h10.294v-3.848H468.476V265.2h3.848V252.981Zm-17.773,0v-3.848H454.551v-8.37h10.294v-3.848H450.7V265.2h3.848V252.981ZM430.5,236.914V255.4a5.952,5.952,0,1,0,11.9,0V236.914h3.847V255.4a9.8,9.8,0,1,1-19.6,0V236.914Z" transform="translate(43.763 -190.199)" fill="#fff" fill-rule="evenodd"/></g></svg>